<?xml version="1.0" encoding="utf-8"?>
<!-- Generator: Adobe Illustrator 16.0.0, SVG Export Plug-In . SVG Version: 6.00 Build 0)  -->
<!DOCTYPE svg PUBLIC "-//W3C//DTD SVG 1.1//EN" "http://www.w3.org/Graphics/SVG/1.1/DTD/svg11.dtd">
<svg version="1.1" id="Layer_1" xmlns="http://www.w3.org/2000/svg" xmlns:xlink="http://www.w3.org/1999/xlink" x="0px" y="0px"
	 width="29px" height="29px" viewBox="0 0 29 29" enable-background="new 0 0 29 29" xml:space="preserve">
<path display="none" fill="#231F20" d="M26.496,7.06c-0.883,0.391-1.832,0.656-2.827,0.775c1.016-0.608,1.796-1.574,2.164-2.723
	c-0.951,0.564-2.004,0.974-3.125,1.194c-0.898-0.957-2.178-1.554-3.592-1.554c-2.718,0-4.923,2.204-4.923,4.922
	c0,0.386,0.044,0.762,0.127,1.122C10.229,10.59,6.603,8.63,4.175,5.653C3.751,6.379,3.508,7.225,3.508,8.127
	c0,1.708,0.869,3.214,2.189,4.097c-0.807-0.025-1.566-0.247-2.229-0.615c-0.001,0.02-0.001,0.041-0.001,0.062
	c0,2.385,1.696,4.373,3.948,4.827c-0.413,0.112-0.848,0.171-1.297,0.171c-0.316,0-0.625-0.03-0.926-0.087
	C5.819,18.536,7.638,19.959,9.792,20c-1.685,1.319-3.808,2.106-6.113,2.106c-0.398,0-0.789-0.023-1.174-0.069
	c2.178,1.396,4.766,2.211,7.545,2.211c9.053,0,14.004-7.5,14.004-14.004c0-0.213-0.005-0.425-0.014-0.636
	C25.001,8.914,25.835,8.047,26.496,7.06z"/>
<path display="none" d="M26.496,7.06c-0.883,0.391-1.832,0.656-2.827,0.775c1.016-0.608,1.796-1.574,2.164-2.723
	c-0.951,0.564-2.004,0.974-3.125,1.194c-0.898-0.957-2.178-1.554-3.592-1.554c-2.718,0-4.923,2.204-4.923,4.922
	c0,0.386,0.044,0.762,0.127,1.122C10.229,10.59,6.603,8.63,4.175,5.653C3.751,6.379,3.508,7.225,3.508,8.127
	c0,1.708,0.869,3.214,2.189,4.097c-0.807-0.025-1.566-0.247-2.229-0.615c-0.001,0.02-0.001,0.041-0.001,0.062
	c0,2.385,1.696,4.373,3.948,4.827c-0.413,0.112-0.848,0.171-1.297,0.171c-0.316,0-0.625-0.03-0.926-0.087
	C5.819,18.536,7.638,19.959,9.792,20c-1.685,1.319-3.808,2.106-6.113,2.106c-0.398,0-0.789-0.023-1.174-0.069
	c2.178,1.396,4.766,2.211,7.545,2.211c9.053,0,14.004-7.5,14.004-14.004c0-0.213-0.005-0.425-0.014-0.636
	C25.001,8.914,25.835,8.047,26.496,7.06z"/>
<path display="none" fill="#EA2127" d="M26.496,7.06c-0.883,0.391-1.832,0.656-2.827,0.775c1.016-0.608,1.796-1.574,2.164-2.723
	c-0.951,0.564-2.004,0.974-3.125,1.194c-0.898-0.957-2.178-1.554-3.592-1.554c-2.718,0-4.923,2.204-4.923,4.922
	c0,0.386,0.044,0.762,0.127,1.122C10.229,10.59,6.603,8.63,4.175,5.653C3.751,6.379,3.508,7.225,3.508,8.127
	c0,1.708,0.869,3.214,2.189,4.097c-0.807-0.025-1.566-0.247-2.229-0.615c-0.001,0.02-0.001,0.041-0.001,0.062
	c0,2.385,1.696,4.373,3.948,4.827c-0.413,0.112-0.848,0.171-1.297,0.171c-0.316,0-0.625-0.03-0.926-0.087
	C5.819,18.536,7.638,19.959,9.792,20c-1.685,1.319-3.808,2.106-6.113,2.106c-0.398,0-0.789-0.023-1.174-0.069
	c2.178,1.396,4.766,2.211,7.545,2.211c9.053,0,14.004-7.5,14.004-14.004c0-0.213-0.005-0.425-0.014-0.636
	C25.001,8.914,25.835,8.047,26.496,7.06z"/>
<path fill="#FFFFFF" d="M26.496,7.06c-0.883,0.391-1.832,0.656-2.827,0.775c1.016-0.608,1.796-1.574,2.164-2.723
	c-0.951,0.564-2.004,0.974-3.125,1.194c-0.898-0.957-2.178-1.554-3.592-1.554c-2.718,0-4.923,2.204-4.923,4.922
	c0,0.386,0.044,0.762,0.127,1.122C10.229,10.59,6.603,8.63,4.175,5.653C3.751,6.379,3.508,7.225,3.508,8.127
	c0,1.708,0.869,3.214,2.189,4.097c-0.807-0.025-1.566-0.247-2.229-0.615c-0.001,0.02-0.001,0.041-0.001,0.062
	c0,2.385,1.696,4.373,3.948,4.827c-0.413,0.112-0.848,0.171-1.297,0.171c-0.316,0-0.625-0.03-0.926-0.087
	C5.819,18.536,7.638,19.959,9.792,20c-1.685,1.319-3.808,2.106-6.113,2.106c-0.398,0-0.789-0.023-1.174-0.069
	c2.178,1.396,4.766,2.211,7.545,2.211c9.053,0,14.004-7.5,14.004-14.004c0-0.213-0.005-0.425-0.014-0.636
	C25.001,8.914,25.835,8.047,26.496,7.06z"/>
</svg>
